<?xml version="1.0" encoding="utf-8"?>
<!-- Generator: Adobe Illustrator 24.1.3, SVG Export Plug-In . SVG Version: 6.00 Build 0)  -->
<svg version="1.1" id="图层_1" xmlns="http://www.w3.org/2000/svg" xmlns:xlink="http://www.w3.org/1999/xlink" x="0px" y="0px"
	 viewBox="0 0 32 32" style="enable-background:new 0 0 32 32;" xml:space="preserve">
<g>
	<path d="M1.6,15.43h13.9V1.53H1.6V15.43z M4.05,4.09h8.99v8.99H4.05V4.09z"/>
	<rect x="6.11" y="5.83" width="4.89" height="4.89"/>
	<path d="M1.6,30.99h13.9V17.14H1.6V30.99z M4.05,19.71h8.99v8.99H4.05V19.71z"/>
	<rect x="6.11" y="21.45" width="4.89" height="4.89"/>
	<path d="M17.08,1.64v13.9h13.9V1.64H17.08z M28.53,13.19h-8.99V4.2h8.99V13.19z"/>
	<rect x="21.59" y="5.94" width="4.89" height="4.89"/>
	<rect x="16.92" y="16.96" width="2.75" height="2.75"/>
	<rect x="25.78" y="21.78" width="2.75" height="2.75"/>
	<rect x="16.92" y="28.25" width="2.75" height="2.75"/>
	<polygon points="19.68,19.72 19.68,28.25 26.02,28.25 26.01,25.52 22.43,25.53 22.43,19.73 	"/>
	<polygon points="25.99,19.71 28.53,19.71 28.53,21.78 30.98,21.78 30.98,19.71 30.98,17.21 25.99,17.21 	"/>
	<polygon points="25.97,28.28 25.99,30.99 30.98,30.99 30.98,28.28 30.98,24.52 28.53,24.52 28.53,28.28 	"/>
</g>
</svg>
