<?xml version="1.0" encoding="utf-8"?>
<!-- Generator: Adobe Illustrator 24.1.3, SVG Export Plug-In . SVG Version: 6.00 Build 0)  -->
<svg version="1.1" id="图层_1" xmlns="http://www.w3.org/2000/svg" xmlns:xlink="http://www.w3.org/1999/xlink" x="0px" y="0px"
	 viewBox="0 0 32 32" style="enable-background:new 0 0 32 32;" xml:space="preserve">
<style type="text/css">
	.st0{fill:#06A8F5;}
</style>
<g>
	<path class="st0" d="M19.3,8.13c-0.15-0.15-0.39-0.15-0.54,0L2.21,24.68c-0.08,0.08-0.12,0.18-0.11,0.29l0.29,5.45
		c0.01,0.11,0.1,0.19,0.2,0.18l4.9-0.25c0.09,0,0.18-0.04,0.25-0.11l16.57-16.57c0.15-0.15,0.15-0.39,0-0.54L19.3,8.13z"/>
	<path class="st0" d="M30.34,7.26L25.18,2.1c-0.13-0.13-0.33-0.13-0.46,0l-3.35,3.35c-0.13,0.13-0.13,0.33,0,0.46l5.17,5.17
		c0.13,0.13,0.33,0.13,0.46,0l3.35-3.35C30.47,7.6,30.47,7.39,30.34,7.26z"/>
</g>
</svg>
