<?xml version="1.0" encoding="utf-8"?>
<!-- Generator: Adobe Illustrator 24.1.3, SVG Export Plug-In . SVG Version: 6.00 Build 0)  -->
<svg version="1.1" id="图层_1" xmlns="http://www.w3.org/2000/svg" xmlns:xlink="http://www.w3.org/1999/xlink" x="0px" y="0px"
	 viewBox="0 0 32 32" style="enable-background:new 0 0 32 32;" xml:space="preserve">
<style type="text/css">
	.st0{fill:#06A8F5;}
</style>
<path class="st0" d="M28.53,5.52H4.01c-0.19,0-0.35-0.16-0.35-0.35v-2.4c0-0.17,0.12-0.31,0.29-0.35l7.55-1.42
	C11.52,1,11.54,1,11.56,1h8.45c0.02,0,0.04,0,0.06,0l8.51,1.42c0.17,0.03,0.29,0.18,0.29,0.35v2.39
	C28.88,5.36,28.72,5.52,28.53,5.52z"/>
<path class="st0" d="M24.58,31.62H7.96c-1.41,0-2.56-1.15-2.56-2.56V10.69c0-1.41,1.15-2.56,2.56-2.56h16.62
	c1.41,0,2.56,1.15,2.56,2.56v18.36C27.14,30.47,26,31.62,24.58,31.62z"/>
</svg>
