<?xml version="1.0" encoding="utf-8"?>
<!-- Generator: Adobe Illustrator 24.1.3, SVG Export Plug-In . SVG Version: 6.00 Build 0)  -->
<svg version="1.1" id="图层_1" xmlns="http://www.w3.org/2000/svg" xmlns:xlink="http://www.w3.org/1999/xlink" x="0px" y="0px"
	 viewBox="0 0 32 32" style="enable-background:new 0 0 32 32;" xml:space="preserve">
<style type="text/css">
	.st0{fill:#28A6EC;}
</style>
<g>
	<path class="st0" d="M15.86,21.05h0.74c2.66,0,4.82-2.06,4.82-4.6V6.19c0-2.54-2.16-4.6-4.82-4.6h-0.74c-2.66,0-4.82,2.06-4.82,4.6
		v10.26C11.04,18.99,13.2,21.05,15.86,21.05z"/>
	<path class="st0" d="M26.43,15.24c-0.68-0.13-1.34,0.32-1.47,1c-0.89,4.74-4.56,8.18-8.72,8.18c-4.19,0-7.87-3.47-8.74-8.25
		c-0.12-0.68-0.78-1.13-1.46-1.01c-0.68,0.13-1.14,0.78-1.01,1.46c1,5.49,5.06,9.6,9.91,10.23v3.7c0,0.18,0.14,0.31,0.31,0.31h1.97
		c0.18,0,0.31-0.14,0.31-0.31v-3.7c4.82-0.62,8.89-4.7,9.91-10.14C27.56,16.03,27.11,15.37,26.43,15.24z"/>
</g>
</svg>
