<?xml version="1.0" encoding="utf-8"?>
<!-- Generator: Adobe Illustrator 24.1.3, SVG Export Plug-In . SVG Version: 6.00 Build 0)  -->
<svg version="1.1" id="图层_1" xmlns="http://www.w3.org/2000/svg" xmlns:xlink="http://www.w3.org/1999/xlink" x="0px" y="0px"
	 viewBox="0 0 32 32" style="enable-background:new 0 0 32 32;" xml:space="preserve">
<style type="text/css">
	.st0{fill:#06A8F5;}
</style>
<path class="st0" d="M24.31,8.14H8.32c-0.55,0-1-0.45-1-1V2.9c0-0.55,0.45-1,1-1h15.99c0.55,0,1,0.45,1,1v4.24
	C25.31,7.69,24.86,8.14,24.31,8.14z"/>
<path class="st0" d="M31,22.97H1.62v-6.1c0-2.8,2.27-5.06,5.06-5.06h19.25c2.8,0,5.06,2.27,5.06,5.06V22.97z"/>
<polygon class="st0" points="21.64,22.04 21.64,25.26 11.35,25.26 11.35,22.04 7.31,22.04 7.31,30.63 25.31,30.63 25.31,22.04 "/>
</svg>
