<?xml version="1.0" encoding="utf-8"?>
<!-- Generator: Adobe Illustrator 24.1.3, SVG Export Plug-In . SVG Version: 6.00 Build 0)  -->
<svg version="1.1" id="图层_1" xmlns="http://www.w3.org/2000/svg" xmlns:xlink="http://www.w3.org/1999/xlink" x="0px" y="0px"
	 viewBox="0 0 32 32" style="enable-background:new 0 0 32 32;" xml:space="preserve">
<style type="text/css">
	.st0{fill:#06A8F5;}
</style>
<path class="st0" d="M29.28,9.34L17.88,2.35C17.51,2.12,17.08,2,16.64,2c-0.43,0-0.86,0.12-1.22,0.34L3.3,9.63
	c-0.99,0.59-1.58,1.64-1.57,2.79c0,0.25,0.03,0.5,0.09,0.74v17.01c0,0.19,0.16,0.35,0.35,0.35H30.4c0.19,0,0.35-0.16,0.35-0.35
	V12.84c0.07-0.27,0.09-0.55,0.09-0.83C30.8,10.91,30.22,9.91,29.28,9.34z M4.53,11.65l12.12-7.29h0l11.41,6.99
	c0.28,0.17,0.42,0.47,0.42,0.76c0,0.27-0.13,0.54-0.38,0.71l-11.04,7.73h0l-12.51-7.4c-0.39-0.23-0.51-0.68-0.38-1.05
	C4.21,11.93,4.34,11.77,4.53,11.65z"/>
</svg>
