<?xml version="1.0" encoding="utf-8"?>
<!-- Generator: Adobe Illustrator 24.1.3, SVG Export Plug-In . SVG Version: 6.00 Build 0)  -->
<svg version="1.1" id="图层_1" xmlns="http://www.w3.org/2000/svg" xmlns:xlink="http://www.w3.org/1999/xlink" x="0px" y="0px"
	 viewBox="0 0 32 32" style="enable-background:new 0 0 32 32;" xml:space="preserve">
<style type="text/css">
	.st0{fill:#06A8F5;}
</style>
<g>
	<path class="st0" d="M17.33,25.44h5.55c0.56,0,1.01-0.45,1.01-1.01v-4.86c0-0.56-0.45-1.01-1.01-1.01h-5.55
		c-0.56,0-1.01,0.45-1.01,1.01v4.86C16.32,24.99,16.77,25.44,17.33,25.44z"/>
	<path class="st0" d="M27.81,5.6h-2.08V2.58c0-0.32-0.26-0.58-0.58-0.58h-3.79c-0.32,0-0.58,0.26-0.58,0.58V5.6h-8.64V2.58
		c0-0.32-0.26-0.58-0.58-0.58H7.77C7.45,2,7.19,2.26,7.19,2.58V5.6H4.76c-0.56,0-1.02,0.46-1.02,1.03v4.98v0.18V29.5
		c0,0.57,0.46,1.02,1.02,1.02h23.05c0.57,0,1.02-0.45,1.02-1.02V11.79v-0.18V6.63C28.83,6.06,28.38,5.6,27.81,5.6z M26.79,28.48
		H5.78V12.81h21.01V28.48z"/>
</g>
</svg>
