<?xml version="1.0" encoding="utf-8"?>
<!-- Generator: Adobe Illustrator 24.1.3, SVG Export Plug-In . SVG Version: 6.00 Build 0)  -->
<svg version="1.1" id="图层_1" xmlns="http://www.w3.org/2000/svg" xmlns:xlink="http://www.w3.org/1999/xlink" x="0px" y="0px"
	 viewBox="0 0 32 32" style="enable-background:new 0 0 32 32;" xml:space="preserve">
<style type="text/css">
	.st0{fill:#0CAAEF;}
	.st1{fill:#FFFFFF;}
</style>
<circle class="st0" cx="16.14" cy="18.97" r="4.64"/>
<path class="st0" d="M27.79,8.48l-3.52-0.14l-2.48-3.85c-0.78-0.97-1.95-1.54-3.19-1.54h-4.17c-1.24,0-2.42,0.58-3.2,1.55L8.8,8.34
	L4.51,8.5c-2.2,0.08-3.94,1.88-3.94,4.08v12.34C0.57,27.17,2.4,29,4.65,29h22.98c2.25,0,4.08-1.83,4.08-4.08V12.56
	C31.71,10.37,29.98,8.57,27.79,8.48z M16.14,25.56c-3.64,0-6.58-2.95-6.58-6.59s2.94-6.59,6.58-6.59s6.59,2.95,6.59,6.59
	S19.78,25.56,16.14,25.56z"/>
<circle class="st1" cx="16.14" cy="18.97" r="4.64"/>
<circle class="st0" cx="16.14" cy="18.97" r="4.64"/>
</svg>
