<?xml version="1.0" encoding="utf-8"?>
<!-- Generator: Adobe Illustrator 24.1.3, SVG Export Plug-In . SVG Version: 6.00 Build 0)  -->
<svg version="1.1" id="图层_1" xmlns="http://www.w3.org/2000/svg" xmlns:xlink="http://www.w3.org/1999/xlink" x="0px" y="0px"
	 viewBox="0 0 32 32" style="enable-background:new 0 0 32 32;" xml:space="preserve">
<style type="text/css">
	.st0{fill:#06A8F5;}
</style>
<path class="st0" d="M27.14,3.31h-7.85c0.11-0.17,0.17-0.36,0.17-0.56c0-0.97-1.41-1.75-3.14-1.75c-1.74,0-3.14,0.78-3.14,1.75
	c0,0.2,0.06,0.39,0.17,0.56H5.48c-1.03,0-1.88,0.84-1.88,1.88v24.46c0,1.03,0.84,1.88,1.88,1.88h21.66c1.04,0,1.88-0.84,1.88-1.88
	V5.19C29.02,4.15,28.18,3.31,27.14,3.31z M18.35,5.54c0,0.05,0,0.09-0.01,0.14c-0.07,1.09-0.98,1.96-2.09,1.96
	c-1.11,0-2.02-0.87-2.09-1.96c-0.01-0.04-0.01-0.09-0.01-0.14c0-0.12,0.01-0.24,0.03-0.35c0.06-0.36,0.21-0.7,0.44-0.98
	c0.39-0.47,0.98-0.77,1.63-0.77c0.67,0,1.27,0.31,1.65,0.8c0.21,0.27,0.36,0.59,0.41,0.94C18.34,5.3,18.35,5.42,18.35,5.54z
	 M26.65,29.15H5.97V5.68h4.93v3.01h10.83V5.68h4.93V29.15z"/>
</svg>
