<?xml version="1.0" encoding="utf-8"?>
<!-- Generator: Adobe Illustrator 24.1.3, SVG Export Plug-In . SVG Version: 6.00 Build 0)  -->
<svg version="1.1" id="图层_1" xmlns="http://www.w3.org/2000/svg" xmlns:xlink="http://www.w3.org/1999/xlink" x="0px" y="0px"
	 viewBox="0 0 32 32" style="enable-background:new 0 0 32 32;" xml:space="preserve">
<style type="text/css">
	.st0{fill:#06A8F5;}
</style>
<g>
	<path class="st0" d="M29.51,4H3.07C2.37,4,1.81,4.56,1.81,5.25v22.03c0,0.69,0.56,1.25,1.25,1.25h26.44c0.69,0,1.25-0.56,1.25-1.25
		V5.25C30.76,4.56,30.2,4,29.51,4z M28.62,9.96l-11.62,7.85c-0.23,0.16-0.5,0.24-0.76,0.24c-0.27,0-0.55-0.08-0.78-0.25l-11.51-8
		C3.33,9.37,3.18,8.52,3.61,7.9c0.43-0.62,1.28-0.77,1.9-0.34l10.75,7.47l10.84-7.33c0.62-0.42,1.47-0.26,1.9,0.36
		C29.41,8.68,29.25,9.53,28.62,9.96z"/>
</g>
</svg>
