<?xml version="1.0" encoding="utf-8"?>
<!-- Generator: Adobe Illustrator 24.1.3, SVG Export Plug-In . SVG Version: 6.00 Build 0)  -->
<svg version="1.1" id="图层_1" xmlns="http://www.w3.org/2000/svg" xmlns:xlink="http://www.w3.org/1999/xlink" x="0px" y="0px"
	 viewBox="0 0 32 32" style="enable-background:new 0 0 32 32;" xml:space="preserve">
<style type="text/css">
	.st0{fill:#06A8F5;}
</style>
<g>
	<path class="st0" d="M25.85,13.43c0-4.67-3.56-8.52-8.11-8.97c-0.18-0.93-1-1.63-1.98-1.63c-0.97,0-1.78,0.69-1.97,1.6
		c-0.42,0.02-0.83,0.08-1.22,0.16l13.29,13.29V13.43z"/>
	<path class="st0" d="M30.19,27.16l-4.34-4.34v-0.09L9.2,6.08C9.18,6.09,9.16,6.1,9.15,6.12L4.51,1.48C3.93,0.9,3,0.9,2.43,1.48
		c-0.57,0.57-0.57,1.5,0,2.08l4.69,4.69c-0.91,1.36-1.45,3-1.45,4.76v10.55l-1.1,0.96c-0.36,0.32-0.14,0.91,0.34,0.91h19.4
		l3.81,3.81c0.29,0.29,0.66,0.43,1.04,0.43c0.38,0,0.75-0.14,1.04-0.43C30.76,28.67,30.76,27.74,30.19,27.16z"/>
	<path class="st0" d="M15.76,31.69c2.03,0,3.67-1.64,3.67-3.67h-7.34C12.09,30.04,13.73,31.69,15.76,31.69z"/>
</g>
</svg>
